<svg width="4167" height="5438" viewBox="0 0 4167 5438" version="1.1" xmlns="http://www.w3.org/2000/svg" xmlns:xlink="http://www.w3.org/1999/xlink" xml:space="preserve" xmlns:serif="http://www.serif.com/" style="fill-rule:evenodd;clip-rule:evenodd;stroke-linejoin:round;stroke-miterlimit:2;"><g><path d="M1243.92,1775.47c152.954,-394.609 335.586,-716.753 595.133,-1031.58c233.508,-283.181 519.02,-714.426 1084.45,-621.569c332.864,54.643 594.094,384.834 648.034,727.385c44.902,285.081 -165.611,668.277 -343.843,872.85c-100.044,114.858 -361.061,360.596 -489.308,383.532c-170.609,30.489 -618.287,0.693 -819.989,-39.69c-266.18,-53.296 -517.679,-155.538 -674.474,-290.927" style="fill:#1999cd;"/><path d="M622.362,2529.28c559.739,16.017 -182.795,-550.791 -0,0m502.523,-357.062c-1.381,-170.006 -423.485,-259.938 -264.501,66.121c91.442,74.049 265.54,58.468 264.501,-66.121m264.502,-145.466c-2.886,517.253 -308.107,732.245 -568.649,991.881c-194.422,-198.119 -467.788,-587.516 -290.981,-925.76c168.797,-322.877 584.798,-281.939 859.63,-66.121" style="fill:#fecd0d;"/><path d="M860.383,2238.34c-158.984,-326.059 263.12,-236.131 264.501,-66.12c1.039,124.588 -173.059,140.165 -264.501,66.12" style="fill:#1a1619;"/><path d="M2262.24,2264.78c-13.606,453.4 -201.306,870.306 -383.493,1177.04c-160.369,269.887 -421.856,553.508 -608.393,132.251c340.65,-373.5 647.217,-781.106 780.29,-1362.2c65.645,22.56 167.337,9.043 211.596,52.915" style="fill:#fecd0d;"/><path d="M2566.43,4169.21c209.27,-532.804 547.732,-1086.48 489.313,-1891.22c470.164,106.469 598.712,832.675 396.757,1296.07c-224.509,269.193 -478.043,509.462 -886.07,595.143m-1335.72,1150.57c-623.846,-100.138 -937.946,-495.351 -872.85,-1124.14c35.394,-342.085 147.144,-848.132 251.242,-1163.79c237.076,174.96 443.926,589.541 687.738,793.51c254.672,213.111 502.044,238.596 780.285,436.413c172.07,688.199 -268.852,1150.73 -846.415,1058.01m-700.954,-3226.9c168.798,-322.877 584.799,-281.939 859.63,-66.121c-2.885,517.253 -308.107,732.245 -568.649,991.881c-194.416,-198.119 -467.787,-587.516 -290.981,-925.76m1520.89,118.991c65.65,22.564 167.338,9.047 211.601,52.92c-13.606,453.399 -201.311,870.306 -383.492,1177.03c-160.369,269.891 -421.862,553.513 -608.398,132.251c340.654,-373.5 647.222,-781.107 780.289,-1362.2m-211.591,-1467.98c233.508,-283.181 519.015,-714.422 1084.45,-621.564c332.864,54.637 594.094,384.834 648.034,727.384c44.902,285.077 -165.615,668.277 -343.842,872.846c-100.044,114.858 -361.066,360.596 -489.308,383.537c-170.61,30.489 -618.287,0.688 -819.995,-39.69c-266.174,-53.302 -517.673,-155.544 -674.469,-290.927c152.955,-394.61 335.587,-716.758 595.134,-1031.59m1772.17,1930.86c195.149,-60.527 423.227,-88.086 555.439,-211.591c-168.071,-170.313 -367.006,112.141 -608.349,79.336c-60.785,-80.242 -127.509,-154.593 -171.941,-251.242c195.619,-108.568 335.027,-273.371 489.348,-423.228c-28.975,-37.146 -52.777,-79.469 -119.031,-79.34c-134.661,169.535 -315.605,292.743 -462.878,449.658c-71.292,-60.959 -192.862,-71.674 -277.726,-119.036c251.301,-311.383 754.725,-684.492 700.919,-1256.38c-27.084,-287.962 -221.931,-464.342 -357.072,-674.469c-296.357,-265.194 -903.414,-232.735 -1190.26,-13.215c-463.997,355.033 -861.006,1063.48 -1097.7,1560.54c-132.082,-29.786 -206.033,-20.239 -343.847,-13.22c-95.436,-103.574 -55.444,-410.913 -264.511,-357.058c-0.896,138.621 118.491,268.674 145.481,423.188c-76.416,82.271 -153.653,163.72 -211.602,264.501c-94.322,-39.046 -379.31,-164.496 -396.752,-52.905c-16.739,107.192 252.494,121.614 343.847,171.941c-61.21,280.385 108.315,526.721 211.636,727.374c-168.367,265.452 -249.995,794.129 -304.197,1190.26c-122.906,898.736 386.512,1308.49 1124.14,1348.95c621.955,34.141 934.12,-465.328 886.075,-1150.57c97.456,3.915 222.515,-19.719 251.282,52.905c17.907,233.33 38.007,464.561 238.061,515.748c13.22,-17.605 21.793,-39.908 39.661,-52.86c-77.153,-147.664 -183.657,-266.012 -158.696,-515.793c116.937,-37.409 190.724,-117.873 330.631,-132.246c111.686,141.971 195.536,444.787 423.193,383.532c-51.836,-203.84 -301.187,-210.215 -304.157,-462.888c402.83,-236.517 728.844,-765.352 529.008,-1401.89" style="fill:#1a1619;"/><path d="M622.362,2529.28c-182.795,-550.791 559.739,16.017 -0,0" style="fill:#1a1619;"/><path d="M3055.75,2277.99c470.159,106.469 598.712,832.675 396.757,1296.07c-224.509,269.193 -478.043,509.462 -886.07,595.143c209.27,-532.804 547.732,-1086.48 489.313,-1891.22" style="fill:#fecd0d;"/><path d="M2077.12,4261.76c172.075,688.199 -268.847,1150.73 -846.414,1058.01c-623.846,-100.139 -937.947,-495.347 -872.846,-1124.14c35.389,-342.085 147.144,-848.133 251.237,-1163.79c237.076,174.96 443.931,589.54 687.739,793.509c254.672,213.116 502.043,238.596 780.284,436.413" style="fill:#1999cd;"/></g></svg>
