<svg width="17363" height="22659" viewBox="0 0 17363 22659" version="1.1" xmlns="http://www.w3.org/2000/svg" xmlns:xlink="http://www.w3.org/1999/xlink" xml:space="preserve" xmlns:serif="http://www.serif.com/" style="fill-rule:evenodd;clip-rule:evenodd;stroke-linejoin:round;stroke-miterlimit:2;"><g><path d="M15046.8,11144.8c813.12,-252.196 1763.44,-367.025 2314.33,-881.63c-700.296,-709.637 -1529.19,467.255 -2534.79,330.567c-253.271,-334.342 -531.287,-644.137 -716.421,-1046.84c815.08,-452.366 1395.95,-1139.05 2038.95,-1763.45c-120.729,-154.775 -219.904,-331.12 -495.962,-330.583c-561.088,706.396 -1315.02,1219.76 -1928.66,1873.58c-297.05,-253.996 -803.592,-298.642 -1157.19,-495.983c1047.09,-1297.43 3144.69,-2852.05 2920.5,-5234.92c-112.85,-1199.84 -924.713,-1934.76 -1487.8,-2810.29c-1234.82,-1104.98 -3764.22,-969.73 -4959.42,-55.063c-1933.32,1479.3 -3587.53,4431.17 -4573.75,6502.25c-550.342,-124.108 -858.471,-84.329 -1432.7,-55.083c-397.65,-431.559 -231.017,-1712.14 -1102.13,-1487.74c-3.733,577.588 493.712,1119.48 606.171,1763.28c-318.4,342.796 -640.221,682.167 -881.675,1102.09c-393.009,-162.692 -1580.46,-685.4 -1653.13,-220.438c-69.745,446.634 1052.06,506.725 1432.7,716.421c-255.041,1168.27 451.313,2194.67 881.817,3030.72c-701.529,1106.05 -1041.65,3308.87 -1267.49,4959.42c-512.108,3744.73 1610.47,5452.04 4683.92,5620.62c2591.48,142.254 3892.17,-1938.87 3691.98,-4794.04c406.067,16.313 927.146,-82.162 1047.01,220.438c74.612,972.208 158.362,1935.67 991.921,2148.95c55.083,-73.354 90.804,-166.284 165.254,-220.25c-321.471,-615.267 -765.238,-1108.38 -661.234,-2149.14c487.238,-155.871 794.684,-491.137 1377.63,-551.025c465.358,591.546 814.733,1853.28 1763.3,1598.05c-215.984,-849.333 -1254.95,-875.895 -1267.32,-1928.7c1678.46,-985.487 3036.85,-3188.97 2204.2,-5841.21" style="fill:#1a1619;"/></g></svg>
