<?xml version="1.0" encoding="UTF-8" standalone="no"?><!DOCTYPE svg PUBLIC "-//W3C//DTD SVG 1.1//EN" "http://www.w3.org/Graphics/SVG/1.1/DTD/svg11.dtd"><svg width="2500" height="3334" viewBox="0 0 2500 3334" version="1.1" xmlns="http://www.w3.org/2000/svg" xmlns:xlink="http://www.w3.org/1999/xlink" xml:space="preserve" xmlns:serif="http://www.serif.com/" style="fill-rule:evenodd;clip-rule:evenodd;stroke-linejoin:round;stroke-miterlimit:2;"><rect id="Artboard1" x="0" y="0" width="2500" height="3333.33" style="fill:none;"/><g id="Artboard11" serif:id="Artboard1"><path id="pause" d="M416.667,0c-230,0 -416.667,186.667 -416.667,416.667l0,2500c0,230 186.667,416.666 416.667,416.666c230,0 416.666,-186.666 416.666,-416.666l0,-2500c0,-230 -186.666,-416.667 -416.666,-416.667m2083.33,416.667l0,2500c0,230 -186.667,416.666 -416.667,416.666c-230,0 -416.666,-186.666 -416.666,-416.666l-0,-2500c-0,-230 186.666,-416.667 416.666,-416.667c230,0 416.667,186.667 416.667,416.667"/></g></svg>
